#!OML:ASF H:\MichaelJackson\Top Level 1\Subject 1\Session 1\male.ASF
:FULLY-SPECIFIED
:DEGREES
238
root 2.68036 14.7382 -0.645153 5.42574 -5.07768 -10.9777
lowerback 12.8006 4.04468 5.07302
upperback 2.3346 6.15073 2.45022
thorax -4.42919 2.9702 -1.26438
lowerneck -9.90426 -1.22665 1.55993
upperneck -0.106816 -1.84627 1.24134
head 1.64234 -0.884675 0.0445207
rclavicle 8.46823e-014 4.27387e-014
rhumerus -5.1245 17.057 -97.2715
rradius 36.7646
rwrist 13.4029
rhand -33.5105 -23.4815
rfingers 7.12502
rthumb -6.707 -53.3553
lclavicle 8.46823e-014 4.27387e-014
lhumerus -39.2443 -26.8408 94.225
lradius 95.807
lwrist 24.7191
lhand -27.4685 -0.87072
lfingers 7.12502
lthumb -0.872598 29.1072
rfemur -18.7057 -10.626 23.596
rtibia 71.3966
rfoot -34.8664 7.49246
rtoes -8.25229
lfemur -65.0738 8.99759 -9.34052
ltibia 66.4674
lfoot -9.63237 -1.85111
ltoes 22.1889
239
root 2.70059 14.7345 -0.484664 5.71945 -5.88101 -10.9505
lowerback 12.5751 4.27144 4.81123
upperback 2.2171 6.4067 2.434
thorax -4.44268 3.09855 -1.16315
lowerneck -9.91902 -1.16807 1.57363
upperneck -0.195958 -1.76715 1.18906
head 1.61528 -0.847412 0.0295049
rclavicle -5.39203e-014 -2.127e-014
rhumerus -3.76096 20.0669 -97.2141
rradius 37.3499
rwrist 13.1986
rhand -32.1246 -22.7829
rfingers 7.12502
rthumb -5.36905 -52.6948
lclavicle -5.39203e-014 -2.127e-014
lhumerus -39.4041 -25.7641 93.153
lradius 94.758
lwrist 22.6979
lhand -26.4763 0.104168
lfingers 7.12502
lthumb 0.085698 30.0839
rfemur -17.7871 -10.5739 23.0823
rtibia 70.4566
rfoot -35.5048 7.6564
rtoes -8.8911
lfemur -64.8853 9.12998 -8.1924
ltibia 62.361
lfoot -8.95365 -1.10437
ltoes 21.9097
240
root 2.72462 14.7322 -0.31879 5.95745 -6.71503 -10.8845
lowerback 12.3712 4.48861 4.57224
upperback 2.12172 6.65238 2.38365
thorax -4.44028 3.22223 -1.10811
lowerneck -9.89329 -1.11476 1.58223
upperneck -0.374501 -1.69116 1.09515
head 1.55151 -0.813841 0.00287257
rclavicle -1.09829e-014 -1.31198e-014
rhumerus -2.47536 23.0051 -97.0021
rradius 38.1791
rwrist 13.0194
rhand -30.567 -22.0105
rfingers 7.12502
rthumb -3.86501 -51.9552
lclavicle -1.09829e-014 -1.31198e-014
lhumerus -39.699 -24.5864 92.0881
lradius 93.6346
lwrist 20.6629
lhand -25.4204 1.16248
lfingers 7.12502
lthumb 1.10557 31.1394
rfemur -16.8522 -10.4901 22.4869
rtibia 69.5422
rfoot -35.9681 7.85544
rtoes -9.46024
lfemur -64.4003 9.09782 -6.82328
ltibia 58.1923
lfoot -8.27363 -0.391932
ltoes 21.4448
241
root 2.75288 14.7316 -0.147032 6.12003 -7.573 -10.8111
lowerback 12.1959 4.69955 4.39551
upperback 2.05925 6.89761 2.3154
thorax -4.41058 3.34583 -1.10531
lowerneck -9.85136 -1.07003 1.5733
upperneck -0.589745 -1.62312 0.963674
head 1.47296 -0.785459 -0.0326037
rclavicle -8.62725e-014 -1.2921e-014
rhumerus -1.25856 25.8075 -96.6316
rradius 39.2428
rwrist 12.8804
rhand -28.9955 -21.1277
rfingers 7.12502
rthumb -2.34741 -51.0945
lclavicle -8.62725e-014 -1.2921e-014
lhumerus -40.1049 -23.3347 91.0452
lradius 92.4726
lwrist 18.8949
lhand -24.2528 2.34695
lfingers 7.12502
lthumb 2.23319 32.315
rfemur -15.8627 -10.3872 21.8352
rtibia 68.6296
rfoot -36.2487 8.1026
rtoes -9.92917
lfemur -63.6047 8.89028 -5.20467
ltibia 54.0071
lfoot -7.5809 0.314306
ltoes 21.0704
242
root 2.78494 14.7328 0.0316392 6.20615 -8.44087 -10.7603
lowerback 12.0417 4.90748 4.30651
upperback 2.02504 7.14999 2.24197
thorax -4.35181 3.4727 -1.15589
lowerneck -9.80993 -1.03525 1.54928
upperneck -0.779661 -1.56705 0.810044
head 1.40298 -0.763089 -0.0730494
rclavicle -8.92046e-014 8.74653e-015
rhumerus -0.113653 28.4098 -96.1213
rradius 40.5154
rwrist 12.7662
rhand -27.4588 -20.1702
rfingers 7.12502
rthumb -0.863215 -50.1482
lclavicle -8.92046e-014 8.74653e-015
lhumerus -40.6112 -22.0386 90.0428
lradius 91.2774
lwrist 17.5551
lhand -23.0651 3.66089
lfingers 7.12502
lthumb 3.38024 33.6138
rfemur -14.7884 -10.263 21.1596
rtibia 67.6872
rfoot -36.3767 8.39211
rtoes -10.3873
lfemur -62.5139 8.50632 -3.33284
ltibia 49.8549
lfoot -6.88823 1.05802
ltoes 21.0853
243
root 2.8204 14.7357 0.218317 6.20663 -9.28873 -10.7401
lowerback 11.9099 5.11057 4.30703
upperback 2.01726 7.4076 2.17348
thorax -4.26671 3.60186 -1.24999
lowerneck -9.79344 -1.01195 1.52196
upperneck -0.888164 -1.52762 0.642921
head 1.36394 -0.74832 -0.118389
rclavicle -5.45664e-014 -4.57205e-015
rhumerus 0.974555 30.797 -95.4762
rradius 41.9463
rwrist 12.6168
rhand -26.0888 -19.1698
rfingers 7.12502
rthumb 0.459974 -49.1491
lclavicle -5.45664e-014 -4.57205e-015
lhumerus -41.1951 -20.7277 89.1025
lradius 90.0304
lwrist 16.7048
lhand -21.9516 5.1148
lfingers 7.12502
lthumb 4.45554 35.0479
rfemur -13.5853 -10.1242 20.4665
rtibia 66.6764
rfoot -36.3779 8.72435
rtoes -10.8377
lfemur -61.1524 7.93986 -1.25775
ltibia 45.7846
lfoot -6.22107 1.89751
ltoes 21.6317
